<svg xmlns="http://www.w3.org/2000/svg" width="40" height="40" viewBox="0 0 40 40">
  <g id="Group_642" data-name="Group 642" transform="translate(-940 -528)">
    <circle id="Ellipse_165" data-name="Ellipse 165" cx="20" cy="20" r="20" transform="translate(940 528)" fill="#757280"/>
    <g id="__loading" transform="translate(947 535)">
      <g id="Path_1445" transform="translate(3 3)" opacity="0.75">
        <path id="Path_1469" data-name="Path 1469" d="M23,10H17a6.957,6.957,0,0,0-7-7V-3A12.974,12.974,0,0,1,23,10Z" fill="#fff"/>
      </g>
      <g id="Path_1447" transform="translate(3 3)" opacity="0.25">
        <path id="Path_1470" data-name="Path 1470" d="M10,23A12.974,12.974,0,0,1-3,10H3a6.957,6.957,0,0,0,7,7Z" fill="#fff"/>
      </g>
      <g id="Path_1448" transform="translate(3 3)">
        <path id="Path_1471" data-name="Path 1471" d="M10,23V17a6.957,6.957,0,0,0,7-7h6A12.974,12.974,0,0,1,10,23Z" fill="#fff"/>
      </g>
      <g id="Path_1446" transform="translate(3 3)" opacity="0.5">
        <path id="Path_1472" data-name="Path 1472" d="M3,10H-3A12.974,12.974,0,0,1,10-3V3A6.957,6.957,0,0,0,3,10Z" fill="#fff"/>
      </g>
    </g>
  </g>
</svg>
