<svg xmlns="http://www.w3.org/2000/svg" width="91" height="40" viewBox="0 0 91 40"><path d="M599,1145.5" transform="translate(-540.79 -1113.815)" fill="none"/><path d="M569,1145.5" transform="translate(-515.303 -1113.815)" fill="none"/><path d="M648,989" transform="translate(-582.42 -980.76)" fill="none"/><path d="M678,989" transform="translate(-607.908 -980.76)" fill="none"/><path d="M577.11,973.927h7.818v-4.495h-7.964a3.632,3.632,0,0,1-3.58-3.671,3.907,3.907,0,0,1,.161-1.109l.278-.464,9.937-17.679h0a8.384,8.384,0,0,0,1.169-4.345A8.067,8.067,0,0,0,576.964,934H569v4.495h7.964a3.632,3.632,0,0,1,3.58,3.671,3.971,3.971,0,0,1-.307,1.5h.015l-9.791,17.379-.015.015a8.234,8.234,0,0,0-1.447,4.7,8.067,8.067,0,0,0,7.964,8.165Z" transform="translate(-514.966 -934)" fill="#f89a01"/><path d="M429,974.854h4.384V943.166a3.581,3.581,0,1,1,7.16,0v31.689h4.384V943.166a7.967,7.967,0,1,0-15.928,0v31.689Z" transform="translate(-396.156 -934.854)" fill="#f89a01"/><path d="M349.384,966.189a3.632,3.632,0,0,0,3.58,3.671h-.073v4.495h.073A8.067,8.067,0,0,1,345,966.189V934.5h4.384v31.614" transform="translate(-324.939 -934.427)" fill="#f89a01"/><path d="M268.891,957.8V941.932A7.951,7.951,0,0,0,261,934v4.366a3.573,3.573,0,0,1,3.507,3.566v15.937A3.573,3.573,0,0,1,261,961.435V965.8a7.951,7.951,0,0,0,7.891-7.932" transform="translate(-253.84 -934)" fill="#f89a01"/><line x1="4.384" transform="translate(0 0.073)"/><path d="M216.384,934.5v39.855H212V934.5" transform="translate(-212 -934.427)" fill="#f89a01"/><path d="M708,958.523v16.331h4.384V943.166a3.581,3.581,0,1,1,7.16,0v31.689h4.384V943.166a7.967,7.967,0,1,0-15.928,0v15.358Z" transform="translate(-632.928 -934.854)" fill="#f89a01"/></svg>