<svg xmlns="http://www.w3.org/2000/svg" width="113.296" height="50" viewBox="0 0 113.296 50"><g transform="translate(-212 -934)"><path d="M599,1145.5" transform="translate(-314.528 -171.893)" fill="none" stroke="#000" stroke-miterlimit="10" stroke-width="1"/><path d="M569,1145.5" transform="translate(-290.146 -171.893)" fill="none" stroke="#000" stroke-miterlimit="10" stroke-width="1"/><path d="M648,989" transform="translate(-354.352 -44.7)" fill="none" stroke="#000" stroke-miterlimit="10" stroke-width="1"/><path d="M678,989" transform="translate(-378.734 -44.7)" fill="none" stroke="#000" stroke-miterlimit="10" stroke-width="1"/><path d="M579.1,983.909h9.733v-5.619h-9.915a4.531,4.531,0,0,1-4.457-4.588,4.9,4.9,0,0,1,.2-1.386l.346-.58,12.371-22.1h0a10.512,10.512,0,0,0,1.456-5.431A10.064,10.064,0,0,0,578.915,934H569v5.618h9.915a4.532,4.532,0,0,1,4.457,4.588,4.982,4.982,0,0,1-.382,1.873h.018L570.819,967.8l-.018.019a10.321,10.321,0,0,0-1.8,5.88,10.064,10.064,0,0,0,9.915,10.207Z" transform="translate(-289.728 0)" fill="#ffb701"/><path d="M429,984.818h5.458V945.207a4.459,4.459,0,1,1,8.915,0v39.611h5.458V945.207a9.919,9.919,0,1,0-19.831,0v39.611Z" transform="translate(-176.109 -0.818)" fill="#ffb701"/><path d="M350.458,974.111a4.532,4.532,0,0,0,4.457,4.589h-.091v5.619h.091A10.064,10.064,0,0,1,345,974.111V934.5h5.458v39.517" transform="translate(-108.023 -0.409)" fill="#ffb701"/><path d="M270.824,963.746V943.915A9.92,9.92,0,0,0,261,934v5.458a4.458,4.458,0,0,1,4.366,4.457v19.922A4.458,4.458,0,0,1,261,968.294v5.458a9.919,9.919,0,0,0,9.824-9.915" transform="translate(-40.085)" fill="#ffb701"/><line x1="5.458" transform="translate(212 934.091)"/><path d="M217.458,934.5v49.818H212V934.5" transform="translate(0 -0.409)" fill="#ffb701"/><path d="M708,964.4v20.414h5.458V945.207a4.459,4.459,0,1,1,8.915,0v39.611h5.458V945.207a9.92,9.92,0,1,0-19.831,0v19.2Z" transform="translate(-402.535 -0.818)" fill="#ffb701"/></g></svg>