<svg id="__logo" xmlns="http://www.w3.org/2000/svg" width="55" height="24.176" viewBox="0 0 55 24.176">
  <path id="Path_321" data-name="Path 321" d="M599,1145.5" transform="translate(-563.818 -1126.349)" fill="none"/>
  <path id="Path_322" data-name="Path 322" d="M569,1145.5" transform="translate(-536.546 -1126.349)" fill="none"/>
  <path id="Path_323" data-name="Path 323" d="M648,989" transform="translate(-608.364 -984.02)" fill="none"/>
  <path id="Path_324" data-name="Path 324" d="M678,989" transform="translate(-635.636 -984.02)" fill="none"/>
  <path id="Path_325" data-name="Path 325" d="M573.9,958.132h4.725v-2.717h-4.813a2.2,2.2,0,0,1-2.164-2.218,2.362,2.362,0,0,1,.1-.67l.168-.281,6.006-10.685h0a5.068,5.068,0,0,0,.707-2.626A4.875,4.875,0,0,0,573.813,934H569v2.717h4.813a2.2,2.2,0,0,1,2.164,2.218,2.4,2.4,0,0,1-.186.906h.009l-5.917,10.5-.009.009A4.976,4.976,0,0,0,569,953.2a4.875,4.875,0,0,0,4.813,4.935Z" transform="translate(-536.342 -934)" fill="#f89a01"/>
  <path id="Path_326" data-name="Path 326" d="M429,959.088h2.65V939.935a2.164,2.164,0,1,1,4.328,0v19.153h2.65V939.935a4.815,4.815,0,1,0-9.627,0v19.153Z" transform="translate(-409.149 -934.912)" fill="#f89a01"/>
  <path id="Path_327" data-name="Path 327" d="M347.65,953.652a2.2,2.2,0,0,0,2.164,2.219h-.044v2.717h.044A4.875,4.875,0,0,1,345,953.652V934.5h2.65v19.107" transform="translate(-332.875 -934.456)" fill="#f89a01"/>
  <path id="Path_328" data-name="Path 328" d="M265.769,948.383v-9.588A4.806,4.806,0,0,0,261,934v2.639a2.16,2.16,0,0,1,2.12,2.155v9.632a2.16,2.16,0,0,1-2.12,2.155v2.639a4.806,4.806,0,0,0,4.769-4.794" transform="translate(-256.672 -934)" fill="#f89a01"/>
  <line id="Line_117" data-name="Line 117" x1="2.65" transform="translate(0 0.044)"/>
  <path id="Path_329" data-name="Path 329" d="M214.65,934.5v24.088H212V934.5" transform="translate(-212 -934.456)" fill="#f89a01"/>
  <path id="Path_330" data-name="Path 330" d="M708,949.217v9.871h2.65V939.935a2.165,2.165,0,1,1,4.328,0v19.153h2.649V939.935a4.815,4.815,0,1,0-9.627,0v9.282Z" transform="translate(-662.627 -934.912)" fill="#f89a01"/>
</svg>
