<svg xmlns="http://www.w3.org/2000/svg" width="50.222" height="64" viewBox="0 0 50.222 64">
  <g id="Group_677" data-name="Group 677" transform="translate(-921.396 -490)">
    <path id="Path_1499" data-name="Path 1499" d="M964.624,535.775a9,9,0,0,0-12.788-.2l-14.071,13.775a7.241,7.241,0,0,1-10.18-.074L926.1,547.78a7.2,7.2,0,0,1-.152-10.013l2.62-2.808.607.6a5.287,5.287,0,0,0,7.345.04l.619-.6.783.812a5.7,5.7,0,0,0,4.127,1.757h.01a5.7,5.7,0,0,0,4.122-1.743L962.4,519.141l-2.437-2.481,11.659-11.94L956.774,490l-11.515,11.69-2.329-2.372-16.547,16.357a5.768,5.768,0,0,0-.1,8.077l.807.836-.591.536a5.26,5.26,0,0,0-.161,7.636l.377.372-2.671,2.861a9.792,9.792,0,0,0,.207,13.617l1.482,1.495a9.849,9.849,0,0,0,13.846.1l14.072-13.775a6.4,6.4,0,0,1,9.091.143l1.248,1.3a3.962,3.962,0,0,1-.057,5.514l1.838,1.838a6.575,6.575,0,0,0,.1-9.153ZM956.8,493.684l11.159,11.066L958.136,514.8l-11.055-11.259Zm-28.585,23.839L942.9,503l15.857,16.149-14.442,14.864a3.122,3.122,0,0,1-2.257.954h-.006a3.118,3.118,0,0,1-2.259-.962l-11.637-12.06A3.158,3.158,0,0,1,928.211,517.523Zm7.125,15.606-.62.6a2.671,2.671,0,0,1-3.712-.02l-2.834-2.8a2.659,2.659,0,0,1,.081-3.861l.65-.589Z" fill="#757280"/>
    <rect id="Rectangle_814" data-name="Rectangle 814" width="3.034" height="3.034" transform="matrix(0.707, -0.707, 0.707, 0.707, 951.985, 503.218)" fill="#757280"/>
    <rect id="Rectangle_815" data-name="Rectangle 815" width="3.034" height="3.034" transform="translate(956.374 507.607) rotate(-45)" fill="#757280"/>
  </g>
</svg>
