<svg xmlns="http://www.w3.org/2000/svg" width="32" height="24.838" viewBox="0 0 32 24.838"><g transform="translate(-128.457 -156.9)"><path d="M159.833,160.95a1.248,1.248,0,0,0-1.429.125l-6.131,5.2-6.821-8.89a1.248,1.248,0,0,0-1.981,0l-6.821,8.89-6.131-5.2a1.257,1.257,0,0,0-2.044,1.179l2.407,13.667-.715,4.363a1.237,1.237,0,0,0,.276,1.016,1.268,1.268,0,0,0,.953.439h26.117a1.268,1.268,0,0,0,.953-.439,1.237,1.237,0,0,0,.276-1.016l-.715-4.363,2.407-13.667A1.248,1.248,0,0,0,159.833,160.95ZM155.7,177.162l.339,2.069H132.863l.339-2.069a7.329,7.329,0,0,0-.013-2.508l-1.655-9.416,4.489,3.812a1.229,1.229,0,0,0,.94.288,1.274,1.274,0,0,0,.865-.489l6.62-8.626,6.62,8.626a1.247,1.247,0,0,0,.865.489,1.229,1.229,0,0,0,.94-.288l4.489-3.812-1.668,9.416A8.832,8.832,0,0,0,155.7,177.162Z" fill="#fff"/></g></svg>