<svg xmlns="http://www.w3.org/2000/svg" width="636.325" height="397.205" viewBox="0 0 636.325 397.205">
  <g id="__graphics" transform="translate(-239.25 -253.034)" opacity="0.64">
    <g id="Layer_3" data-name="Layer 3" transform="translate(388.502 253.034)">
      <circle id="Ellipse_121" data-name="Ellipse 121" cx="198.603" cy="198.603" r="198.603" fill="#f7f7f7"/>
    </g>
    <g id="Layer_5" data-name="Layer 5" transform="translate(632.731 262.829)">
      <g id="Group_213" data-name="Group 213">
        <g id="Group_212" data-name="Group 212">
          <g id="Group_211" data-name="Group 211">
            <path id="Path_1365" data-name="Path 1365" d="M660.366,308.191a11.314,11.314,0,1,1,0,22.628H499.375a11.314,11.314,0,1,1,0-22.628h22.24a13.357,13.357,0,1,0-.2-26.713H444.234a11.324,11.324,0,0,1,0-22.649H605.225a11.324,11.324,0,0,1,0,22.649H587.049a13.356,13.356,0,0,0,0,26.713Z" transform="translate(-430.878 -256.788)" fill="#fff"/>
            <path id="Path_1366" data-name="Path 1366" d="M672.722,320.548a11.326,11.326,0,0,0-11.314-11.314H588.091a13.356,13.356,0,0,1,0-26.713h18.176a11.324,11.324,0,0,0,0-22.649H445.276a11.324,11.324,0,0,0,0,22.649h77.177a13.357,13.357,0,1,1,.2,26.713h-22.24a11.314,11.314,0,1,0,0,22.628H661.408A11.313,11.313,0,0,0,672.722,320.548Zm-11.314-13.356a13.356,13.356,0,1,1,0,26.713H500.417a13.356,13.356,0,1,1,0-26.713h22.24a11.314,11.314,0,1,0,0-22.628H445.276a13.367,13.367,0,0,1,0-26.733H606.267a13.367,13.367,0,0,1,0,26.733H588.091a11.314,11.314,0,1,0,0,22.628Z" transform="translate(-431.92 -257.83)" fill="#757280"/>
          </g>
        </g>
      </g>
    </g>
    <g id="Layer_6" data-name="Layer 6" transform="translate(239.25 360.959)">
      <g id="Group_216" data-name="Group 216">
        <g id="Group_215" data-name="Group 215">
          <g id="Group_214" data-name="Group 214">
            <path id="Path_1367" data-name="Path 1367" d="M403.406,355.221a13.356,13.356,0,1,1,0,26.713H297.536a13.356,13.356,0,1,1,0-26.713h12.029a11.314,11.314,0,1,0,0-22.628H252.606a13.356,13.356,0,1,1,0-26.713H362.561a13.356,13.356,0,0,1,0,26.713H352.534a11.314,11.314,0,0,0,0,22.628Zm11.314,13.356a11.339,11.339,0,0,0-11.314-11.314H352.534a13.356,13.356,0,1,1,0-26.713h10.027a11.314,11.314,0,1,0,0-22.628H252.606a11.314,11.314,0,1,0,0,22.628h56.754a13.357,13.357,0,1,1,.2,26.713H297.536a11.314,11.314,0,1,0,0,22.628h105.87A11.326,11.326,0,0,0,414.72,368.577Z" transform="translate(-239.25 -305.88)" fill="#757280"/>
            <path id="Path_1368" data-name="Path 1368" d="M402.364,356.221a11.314,11.314,0,1,1,0,22.628H296.494a11.314,11.314,0,1,1,0-22.628h12.029a13.357,13.357,0,1,0-.2-26.713H251.564a11.314,11.314,0,1,1,0-22.628H361.519a11.314,11.314,0,1,1,0,22.628H351.492a13.356,13.356,0,1,0,0,26.713Z" transform="translate(-238.208 -304.838)" fill="#fff"/>
          </g>
        </g>
      </g>
    </g>
    <g id="Layer_2" data-name="Layer 2" transform="translate(432.59 351.96)">
      <g id="Group_218" data-name="Group 218">
        <g id="Group_217" data-name="Group 217">
          <path id="Path_1369" data-name="Path 1369" d="M462.8,392.691l-14.03,9.742L419.5,353.97Z" transform="translate(-244.724 -246.759)" fill="#d8d8d8"/>
          <path id="Path_1370" data-name="Path 1370" d="M483.09,322.9c4.085.47,66.639,8.087,63.535,41.458-.347,3.758-2.839,6.841-7.413,9.19-22.322,11.437-85.223,2.451-99.6-.388-6.984-1.389-11.947-.572-15.48,1.062-1.634-4.064-8.455-19.34-19.81-26.427,12.111-8.823,31.144-17.543,61.063-22.669l1.573-.286a16.892,16.892,0,0,0,4.35.306A31.294,31.294,0,0,0,483.09,322.9Z" transform="translate(-260.545 -279.142)" fill="#d8d8d8"/>
          <path id="Path_1371" data-name="Path 1371" d="M506.108,316.328a52.831,52.831,0,0,0-15.746,12.09l.735.633-.8-.633c-.266.347-6.576,8.373-4.35,16.215,1.1,3.9,4.146,7.005,9.006,9.251-36.985,13.867-45.358,33.861-47.176,40.845H409.019c7.311-16.011,15.7-24.548,15.909-24.752l-1.43-1.45c-.429.429-38.721,39.13-23.711,107.892-4.044,1.491-21.423,8.332-31.839,20.137a144.261,144.261,0,0,1-20.2-39.211c-9.211-27.734-13.622-71.479,17.625-122.331C402.708,279.384,491.424,310.671,506.108,316.328Z" transform="translate(-326.573 -300.447)" fill="#d8d8d8"/>
          <path id="Path_1372" data-name="Path 1372" d="M452.383,320.653v2.042h-18.5v-7h2.042v4.963Z" transform="translate(-229.736 -286.656)" fill="#757280"/>
          <path id="Path_1373" data-name="Path 1373" d="M442.453,320.422v2.042H438.92V310.17h2.042v10.252Z" transform="translate(-224.484 -292.41)" fill="#757280"/>
          <path id="Path_1374" data-name="Path 1374" d="M537.961,457.147l14.03-9.742-43.3-38.721Zm6.719-145.654c-12.662,0-22.955,7.6-22.955,16.971,0,9.353,10.293,16.971,22.955,16.971,12.682,0,23-7.618,23-16.971C567.676,319.091,557.363,311.494,544.681,311.494ZM499.22,330.752c-.286.388-5.861,7.679-3.962,14.357,1.082,3.778,4.411,6.719,9.884,8.761a198.962,198.962,0,0,1,30.062-7.822c-9.108-2.859-15.521-9.66-15.521-17.584,0-5.9,3.533-11.171,9.068-14.663-8.455,2.144-20.647,6.821-29.49,16.992Zm39.538,16.706c-29.919,5.126-48.953,13.846-61.063,22.669,11.355,7.087,18.176,22.363,19.81,26.427,3.533-1.634,8.5-2.451,15.48-1.062,14.378,2.839,77.279,11.825,99.6.388,4.575-2.349,7.066-5.432,7.413-9.19,3.1-33.37-59.45-40.988-63.534-41.458a31.294,31.294,0,0,1-11.784,2.247,16.892,16.892,0,0,1-4.35-.306ZM470.24,452.266a5.624,5.624,0,0,1-2.818-.694c-1.021-.449-7.985-3.9-12.029-15.011l-14.48,9.251,39.007,62.37,63.371-38.251-39.007-64.617-15.317,9.8a19.268,19.268,0,0,0,4.963,14.071c6.168,6.106,5.065,9.864,3.839,11.559a6.935,6.935,0,0,1-5.718,2.573c-.061,0-.123-.02-.184-.02a5.691,5.691,0,0,1,.633,4.82,6.646,6.646,0,0,1-5.351,4.493,8.229,8.229,0,0,1-1,.061c-4.309,0-7.965-3.145-10.416-6.065A5.28,5.28,0,0,1,473.957,451,5.816,5.816,0,0,1,470.24,452.266Zm-1.756-2.451a4.041,4.041,0,0,0,4.146-.368c1.511-1.266,1.409-3.982-.266-7.658-2.675-3.39-4.391-7.924-5.494-12.56l-.449-2.124a87.115,87.115,0,0,1-1.348-19.095l2.042.1A88.275,88.275,0,0,0,468.28,425.9l.449,2.144c1.021,4.7,2.675,9.292,5.31,12.56l.1.163c.061.1,5.759,10.6,12.785,9.8a4.635,4.635,0,0,0,3.635-3.063c.347-1.082.368-2.7-1.47-4.37a39.793,39.793,0,0,1-11.845-20.525l-.409-2.185a36.782,36.782,0,0,1,.429-12.58l2,.429a34.191,34.191,0,0,0-.511,10.946l.327,2.206a37.434,37.434,0,0,0,10.477,19.34c2.206,1.021,5.351.47,6.556-1.2,1.43-1.981.082-5.269-3.676-8.986a21.36,21.36,0,0,1-5.494-14.173l.143-2.512a24.952,24.952,0,0,1,2.308-8.251,14.982,14.982,0,0,1,6.311-8.108c-1.45-3.554-8.435-19.524-19.769-26.12-17.625,13.561-19.258,26.917-19.279,27.142-3.165,15.889-2.328,27.06-.041,34.8l.654,2c3.962,11.192,10.906,14.316,11.028,14.357Zm44.97-132.46c-14.684-5.657-103.4-36.944-140.732,18.687-31.247,50.852-26.835,94.6-17.625,122.331a144.261,144.261,0,0,0,20.2,39.211c10.416-11.8,27.8-18.646,31.839-20.137-15.01-68.763,23.282-107.463,23.711-107.892l1.43,1.45c-.2.2-8.6,8.741-15.909,24.752h38.762c1.818-6.985,10.191-26.978,47.176-40.845-4.861-2.246-7.9-5.351-9.006-9.251-2.226-7.842,4.085-15.868,4.35-16.215l.8.633-.735-.633A52.831,52.831,0,0,1,513.454,317.355ZM381.239,508.142c-1.491-1.573-18.36-19.871-28.081-49.137a134.931,134.931,0,0,1-5.6-61.206H333.92v-2.042h13.949c2.818-18.544,9.742-39.027,23.118-60.818C411.26,274.958,509,313.332,515.926,316.15a73.225,73.225,0,0,1,15.623-5.065,59.353,59.353,0,0,1,6.964-1.042,33.776,33.776,0,0,1,6.168-.592c13.806,0,25.038,8.516,25.038,19.013,0,6.168-3.921,11.641-9.925,15.133,13.867,1.9,65.23,11.171,62.248,43.3-.327,3.492-2.165,6.454-5.412,8.863h14.949V397.8h-18.3c-23.037,11.518-86.224,2.553-100.7-.306-18.135-3.594-21.117,8.251-21.219,8.761l-.1.266a20.423,20.423,0,0,0-2,5.984l15.685-10.027.184.266L555.28,447.59l-16.256,11.294,7.066,11.723-66.823,40.375L438.116,445.2l16.6-10.62c-2.471-8.067-3.411-19.687-.082-36.332a3.446,3.446,0,0,1,.061-.449H415.447c-9.394,21.77-16.277,56.3.266,101.827,8.782,43.99-9.966,53.119-10.763,53.487a4.967,4.967,0,0,1-2.716.674,5.81,5.81,0,0,1-3.758-1.266,5.28,5.28,0,0,1-1.777-4.391c-2.471,2.92-6.106,6.045-10.415,6.045a8.2,8.2,0,0,1-1-.041,6.646,6.646,0,0,1-5.351-4.493,5.682,5.682,0,0,1,.633-4.82c-.061,0-.122.02-.184.02a6.994,6.994,0,0,1-5.718-2.573c-1.225-1.7-2.328-5.453,3.88-11.62C387.284,520.621,381.872,509.347,381.239,508.142ZM407.6,479.449c-4.309,1.634-21.321,8.516-31.063,19.83a85.239,85.239,0,0,0,6.27,7.556l.163.2c.061.143,7.25,13.336-2.941,25-3.8,3.778-5.146,7.066-3.717,9.047,1.2,1.675,4.35,2.226,6.556,1.205,4.248-4.207,13.785-15.746,10.293-32.492l2-.429c3.982,19.136-8.046,31.859-11.845,35.29-1.818,1.675-1.8,3.288-1.45,4.35a4.624,4.624,0,0,0,3.635,3.084c7,.817,12.723-9.7,12.764-9.8h.02l.1-.163c8.067-10.027,6.923-32.268,6.923-32.492l2.022-.1c.061.939,1.2,23.077-7.291,33.779-1.654,3.676-1.756,6.392-.265,7.658a4.078,4.078,0,0,0,4.166.368c.327-.163,18.2-9.068,9.8-51.179A179.438,179.438,0,0,1,407.6,479.449Z" transform="translate(-333.92 -301.474)" fill="#757280"/>
        </g>
        <path id="Path_1377" data-name="Path 1377" d="M135.823,72.17s14.286,7.777,22.223,28.254" fill="none" stroke="#757280" stroke-width="2"/>
        <ellipse id="Ellipse_122" data-name="Ellipse 122" cx="11" cy="10.5" rx="11" ry="10.5" transform="translate(129.341 66.707) rotate(-22)" fill="#757280"/>
        <g id="Ellipse_123" data-name="Ellipse 123" transform="translate(130.311 65.066) rotate(-16)" fill="#fff" stroke="#757280" stroke-width="2">
          <ellipse cx="10.5" cy="9" rx="10.5" ry="9" stroke="none"/>
          <ellipse cx="10.5" cy="9" rx="9.5" ry="8" fill="none"/>
        </g>
      </g>
    </g>
    <g id="Layer_4" data-name="Layer 4" transform="translate(643.361 359.927)">
      <path id="Path_1376" data-name="Path 1376" d="M437.125,306.4l18.252-1.021s9.956.169,9.956,9.786-1.914,24.039,6.766,27.229c0,0-9.656,4.63-15.7,1.276s-3.345-25.786-3.345-25.786S454.874,307.564,437.125,306.4Z" transform="translate(-437.125 -305.375)" fill="#757280"/>
    </g>
  </g>
</svg>
